<?xml version="1.0" standalone="no"?><!DOCTYPE svg PUBLIC "-//W3C//DTD SVG 1.1//EN" "http://www.w3.org/Graphics/SVG/1.1/DTD/svg11.dtd"><svg t="1487126219272" class="icon" style="" viewBox="0 0 1024 1024" version="1.1" xmlns="http://www.w3.org/2000/svg" p-id="1435" xmlns:xlink="http://www.w3.org/1999/xlink" width="200" height="200"><defs><style type="text/css"></style></defs><path d="M191.496063 186.658268H136.264567c-8.869291 0-16.125984-7.256693-16.125984-16.125985s7.256693-16.125984 16.125984-16.125984h55.231496c8.869291 0 16.125984 7.256693 16.125984 16.125984s-7.256693 16.125984-16.125984 16.125985zM380.976378 645.845669H136.264567c-8.869291 0-16.125984-7.256693-16.125984-16.125984s7.256693-16.125984 16.125984-16.125984h244.711811c8.869291 0 16.125984 7.256693 16.125984 16.125984s-7.256693 16.125984-16.125984 16.125984zM613.190551 875.237795H136.264567c-8.869291 0-16.125984-7.256693-16.125984-16.125984s7.256693-16.125984 16.125984-16.125984h476.925984c8.869291 0 16.125984 7.256693 16.125984 16.125984s-7.256693 16.125984-16.125984 16.125984zM248.743307 416.050394H136.264567c-8.869291 0-16.125984-7.256693-16.125984-16.125985s7.256693-16.125984 16.125984-16.125984h112.47874c8.869291 0 16.125984 7.256693 16.125984 16.125984s-7.256693 16.125984-16.125984 16.125985zM634.55748 656.730709c-139.086614 0-251.968504-112.88189-251.968504-251.162205s112.88189-251.162205 251.968504-251.162205 251.968504 112.88189 251.968504 251.162205-112.88189 251.162205-251.968504 251.162205z m0-470.072441c-121.348031 0-219.716535 98.368504-219.716535 218.910236s98.368504 218.910236 219.716535 218.910236 219.716535-98.368504 219.716536-218.910236-98.368504-218.910236-219.716536-218.910236zM833.713386 875.237795c-6.047244 0-11.691339-3.225197-14.513386-9.272441l-68.535433-144.730708c-3.628346-8.062992-0.40315-17.738583 7.659842-21.366929 8.062992-3.628346 17.738583-0.40315 21.36693 7.659842l68.535433 144.730709c3.628346 8.062992 0.40315 17.738583-7.659843 21.366929-2.418898 1.209449-4.837795 1.612598-6.853543 1.612598z" p-id="1436"></path></svg>